<svg aria-hidden="true" style="position: absolute; width: 0; height: 0; overflow: hidden;" version="1.1" xmlns="http://www.w3.org/2000/svg" xmlns:xlink="http://www.w3.org/1999/xlink">
<defs>
<symbol id="icon-hamburger" viewBox="0 0 16 15" ><g fill-rule="evenodd"><path d="M0 0h16v3H0zM0 6h16v3H0zM0 12h16v3H0z"/></g>
</symbol>
<symbol id="icon-bookmark" viewBox="0 0 56 56" ><g fill="none" fill-rule="evenodd"><circle fill="#2F2F2F" cx="28" cy="28" r="28"/><path fill="#B1B1B1" d="M23 19v18l5-5.058L33 37V19z"/></g>
</symbol>
<symbol id="icon-check" viewBox="0 0 64 64" ><g fill="none" fill-rule="evenodd"><circle fill="#3CB3AB" cx="32" cy="32" r="32"/><path stroke="#FFF" stroke-width="5" d="M20 31.86L28.093 40 44 24"/></g>
</symbol>
<symbol id="icon-close-menu" viewBox="0 0 14 15" ><g fill-rule="evenodd"><path d="M2.404.782l11.314 11.314-2.122 2.122L.282 2.904z"/><path d="M.282 12.096L11.596.782l2.122 2.122L2.404 14.218z"/></g>
</symbol>
<symbol id="icon-close-modal" viewBox="0 0 15 15" ><path d="M11.314 0l2.828 2.828L9.9 7.071l4.243 4.243-2.828 2.828L7.07 9.9l-4.243 4.243L0 11.314 4.242 7.07 0 2.828 2.828 0l4.243 4.242L11.314 0z" fill="#000" fill-rule="evenodd" opacity=".4"/>
</symbol>
<symbol id="logo" viewBox="0 0 192 32" ><path d="M2.694 26.324a2.694 2.694 0 002.695-2.697V2.697a2.694 2.694 0 10-5.389 0v20.93a2.694 2.694 0 002.694 2.697zm15.506.213c5.92 0 10.317-4.435 10.317-9.898v-.071c0-5.464-4.36-9.827-10.246-9.827-5.92 0-10.317 4.434-10.317 9.898v.07c0 5.464 4.361 9.828 10.246 9.828zm.071-4.648c-2.978 0-4.999-2.448-4.999-5.25v-.071c0-2.803 1.844-5.18 4.928-5.18 2.978 0 5 2.448 5 5.25v.072c0 2.802-1.844 5.18-4.929 5.18zm21.887 4.648c5.921 0 10.317-4.435 10.317-9.898v-.071c0-5.464-4.36-9.827-10.246-9.827-5.92 0-10.317 4.434-10.317 9.898v.07c0 5.464 4.361 9.828 10.246 9.828zm.071-4.648c-2.978 0-4.999-2.448-4.999-5.25v-.071c0-2.803 1.844-5.18 4.928-5.18 2.979 0 5 2.448 5 5.25v.072c0 2.802-1.844 5.18-4.929 5.18zM55.487 32a2.694 2.694 0 002.694-2.696v-5.677c1.277 1.526 3.05 2.839 5.921 2.839 4.503 0 8.65-3.477 8.65-9.827v-.071c0-6.35-4.218-9.827-8.65-9.827-2.8 0-4.609 1.312-5.92 3.086V9.58a2.694 2.694 0 10-5.39 0v19.725A2.694 2.694 0 0055.488 32zm7.232-10.11c-2.517 0-4.608-2.094-4.608-5.251v-.071c0-3.158 2.091-5.25 4.608-5.25 2.518 0 4.645 2.092 4.645 5.25v.07c0 3.193-2.127 5.251-4.645 5.251zm19.087 4.576c4.113 0 7.268-1.916 7.268-6.138v-.07c0-3.478-3.084-4.755-5.743-5.642-2.057-.71-3.865-1.206-3.865-2.27v-.071c0-.745.674-1.313 1.985-1.313 1.135 0 2.589.462 4.113 1.207.355.177.603.248.993.248 1.205 0 2.162-.923 2.162-2.129 0-.922-.496-1.632-1.276-2.022-1.843-.922-3.9-1.454-5.885-1.454-3.83 0-6.949 2.164-6.949 6.03v.072c0 3.69 3.014 4.93 5.673 5.711 2.091.639 3.935 1.03 3.935 2.2v.07c0 .852-.71 1.42-2.27 1.42-1.524 0-3.332-.568-5.14-1.703a2.066 2.066 0 00-1.064-.284c-1.205 0-2.127.923-2.127 2.129 0 .851.461 1.49 1.028 1.845 2.305 1.49 4.822 2.164 7.162 2.164zm15.612-.036c1.17 0 2.092-.142 3.085-.532a2.194 2.194 0 001.382-2.022 2.248 2.248 0 00-2.233-2.235c-.107 0-.461.035-.638.035-1.206 0-1.738-.603-1.738-1.845v-8.124h2.376a2.3 2.3 0 002.304-2.306 2.3 2.3 0 00-2.304-2.306h-2.376V4.718a2.694 2.694 0 10-5.389 0v2.377h-.177a2.3 2.3 0 00-2.304 2.306 2.3 2.3 0 002.304 2.306h.177v9.011c0 4.4 2.234 5.712 5.531 5.712zm13.024.036c2.73 0 4.325-1.455 5.566-3.051v.212a2.694 2.694 0 105.39 0V9.58a2.694 2.694 0 10-5.39 0v8.124c0 2.554-1.311 3.867-3.368 3.867-2.056 0-3.261-1.313-3.261-3.867V9.579a2.694 2.694 0 10-5.39 0v9.827c0 4.363 2.376 7.06 6.453 7.06zm21.994 0c2.8 0 4.609-1.313 5.92-3.087v.248a2.694 2.694 0 105.39 0V2.697a2.694 2.694 0 10-5.39 0v6.882c-1.276-1.526-3.048-2.838-5.92-2.838-4.503 0-8.65 3.476-8.65 9.827v.07c0 6.35 4.218 9.828 8.65 9.828zm1.383-4.577c-2.518 0-4.645-2.093-4.645-5.25v-.071c0-3.193 2.127-5.25 4.645-5.25 2.517 0 4.608 2.092 4.608 5.25v.07c0 3.158-2.091 5.251-4.608 5.251zm16.108-16.71c1.702 0 3.014-.993 3.014-2.554v-.07c0-1.562-1.312-2.52-3.014-2.52-1.702 0-3.013.958-3.013 2.52v.07c0 1.561 1.311 2.555 3.013 2.555zm0 21.145a2.694 2.694 0 002.694-2.697V9.58a2.694 2.694 0 10-5.388 0v14.048a2.694 2.694 0 002.694 2.697zm15.506.213c5.92 0 10.317-4.435 10.317-9.898v-.071c0-5.464-4.361-9.827-10.246-9.827-5.921 0-10.317 4.434-10.317 9.898v.07c0 5.464 4.36 9.828 10.246 9.828zm.07-4.648c-2.977 0-4.998-2.448-4.998-5.25v-.071c0-2.803 1.843-5.18 4.928-5.18 2.978 0 4.999 2.448 4.999 5.25v.072c0 2.802-1.844 5.18-4.928 5.18zm19.23 4.577c4.112 0 7.267-1.916 7.267-6.138v-.07c0-3.478-3.084-4.755-5.743-5.642-2.057-.71-3.865-1.206-3.865-2.27v-.071c0-.745.674-1.313 1.986-1.313 1.134 0 2.588.462 4.112 1.207.355.177.603.248.993.248 1.205 0 2.162-.923 2.162-2.129 0-.922-.496-1.632-1.276-2.022-1.843-.922-3.9-1.454-5.885-1.454-3.83 0-6.949 2.164-6.949 6.03v.072c0 3.69 3.014 4.93 5.673 5.711 2.091.639 3.935 1.03 3.935 2.2v.07c0 .852-.71 1.42-2.27 1.42-1.524 0-3.332-.568-5.14-1.703a2.066 2.066 0 00-1.063-.284c-1.206 0-2.128.923-2.128 2.129 0 .851.461 1.49 1.028 1.845 2.305 1.49 4.822 2.164 7.162 2.164z" fill="#FFF" fill-rule="nonzero"/>
</symbol>
<symbol id="logo-mastercraft" viewBox="0 0 56 56" ><g fill="none" fill-rule="evenodd"><circle fill="#000" cx="28" cy="28" r="28"/><g fill-rule="nonzero"><path d="M15.565 28.565a1.93 1.93 0 012.606-.113l.122.113 10.142 10.142a1.93 1.93 0 01-2.606 2.84l-.122-.112-10.142-10.142a1.93 1.93 0 010-2.728z" fill="#444"/><path d="M36.19 17.48c1.006-.996 2.706-.34 2.805 1.026l.005.126v10.736c0 .9-.737 1.629-1.646 1.629a1.64 1.64 0 01-1.642-1.507l-.005-.122v-6.805l-8.043 7.957c-1.006.996-2.707.34-2.806-1.026l-.004-.126v-6.805L16.81 30.52a1.66 1.66 0 01-2.224.095l-.105-.095a1.616 1.616 0 01-.096-2.2l.096-.103L25.336 17.48c1.006-.996 2.707-.34 2.806 1.026l.004.126v6.804l8.043-7.956z" fill="#FFF"/></g></g>
</symbol>

</defs>
</svg>
